<?xml version="1.0" encoding="UTF-8"?>
<svg id="_レイヤー_2" data-name="レイヤー 2" xmlns="http://www.w3.org/2000/svg" xmlns:xlink="http://www.w3.org/1999/xlink" viewBox="0 0 352.33 186.6">
  <defs>
    <style>
      .cls-1 {
        clip-path: url(#clippath-2);
      }

      .cls-2, .cls-3 {
        fill: #f02d1b;
      }

      .cls-4 {
        fill: none;
      }

      .cls-4, .cls-5, .cls-3, .cls-6 {
        stroke-width: 0px;
      }

      .cls-7 {
        clip-path: url(#clippath-1);
      }

      .cls-8 {
        clip-path: url(#clippath);
      }

      .cls-9 {
        clip-path: url(#clippath-3);
      }

      .cls-5 {
        fill: #6aa4ea;
      }

      .cls-6 {
        fill: #e73e37;
      }
    </style>
    <clipPath id="clippath">
      <path class="cls-3" d="M159.12,80.27c-2.45-.19-3.6-3.13-1.98-4.98l33.79-38.4c4.83-5.49,7.49-12.54,7.49-19.85v-5.06c0-1.66-1.35-3.01-3.01-3.01h-71.44c-16.6,0-30.05,13.45-30.05,30.05v12.14c0,2.82,3.61,4.16,5.33,1.92,5.02-6.53,12.61-8.6,20.67-8.6h30.53c2.59,0,3.96,3.05,2.26,4.99l-36.54,41.53c-1.71,1.94-.34,5,2.25,4.99,7.31-.02,18.88-.04,25.66.06,3.51.05,6.83.64,9.84,1.8,8.65,3.29,14.68,10.78,14.68,19.48v26.42c0,11.75-10.97,21.28-24.51,21.28s-24.51-9.53-24.51-21.28v-9.3c0-4.68,1.13-8.82,4.34-13.19,1.72-2.35-.03-5.68-2.95-5.68h-15.71c-10.76,0-20.59,7.02-23.21,17.46-1.21,4.82-.78,9.42.38,13.08,7.38,23.31,32.19,40.45,61.66,40.45,36.29,0,65.57-25.16,65.69-54.89.09-22.1-13.91-48.65-50.65-51.45Z"/>
    </clipPath>
    <clipPath id="clippath-1">
      <path class="cls-4" d="M0,59.25h0c0,1.63,1.32,2.96,2.95,2.97l15.95.08c1.65,0,2.99,1.35,2.99,3.01v115.13c0,1.66,1.35,3.01,3.01,3.01h7.04c14.94,0,27.05-12.11,27.05-27.05V12.06c0-1.66-1.35-3.01-3.01-3.01h0c-11.34,0-21.28,7.38-24.75,18.17-4.23,13.15-14.64,25.35-29.09,29.18-1.27.34-2.13,1.53-2.13,2.84Z"/>
    </clipPath>
    <clipPath id="clippath-2">
      <path class="cls-4" d="M290.89,62.32h-56.33c-1.66,0-3.01,1.35-3.01,3.01v4.29c0,16.6,13.45,30.05,30.05,30.05h26.72c13.59,0,24.61,11.03,24.61,24.62,0,10.89,0,19.48,0,19.48,0,11.75-10.97,21.28-24.51,21.28s-24.51-9.53-24.51-21.28v-9.3c0-4.68,1.15-8.82,4.34-13.19,1.72-2.35-.03-5.67-2.95-5.67h-15.53c-15.28,0-27.07,14.2-23.44,29.05.13.52.27,1.02.42,1.5,7.38,23.31,32.19,40.45,61.66,40.45,35.29,0,63.9-28.92,63.9-62.85s-24.76-61.44-61.44-61.44Z"/>
    </clipPath>
    <clipPath id="clippath-3">
      <path class="cls-3" d="M309.88,8.99h-48.26c-16.6,0-30.05,13.45-30.05,30.05v13.6c0,2.86,3.63,4.11,5.36,1.84,4.48-5.87,11.39-9.97,21.83-9.97h47.85c16.6,0,30.05-13.45,30.05-30.05V2.99c0-2.65-3.15-3.96-5.09-2.16-7.14,6.63-14.73,8.16-21.69,8.16Z"/>
    </clipPath>
  </defs>
  <g id="design">
    <g>
      <g>
        <path class="cls-2" d="M159.12,80.27c-2.45-.19-3.6-3.13-1.98-4.98l33.79-38.4c4.83-5.49,7.49-12.54,7.49-19.85v-5.06c0-1.66-1.35-3.01-3.01-3.01h-71.44c-16.6,0-30.05,13.45-30.05,30.05v12.14c0,2.82,3.61,4.16,5.33,1.92,5.02-6.53,12.61-8.6,20.67-8.6h30.53c2.59,0,3.96,3.05,2.26,4.99l-36.54,41.53c-1.71,1.94-.34,5,2.25,4.99,7.31-.02,18.88-.04,25.66.06,3.51.05,6.83.64,9.84,1.8,8.65,3.29,14.68,10.78,14.68,19.48v26.42c0,11.75-10.97,21.28-24.51,21.28s-24.51-9.53-24.51-21.28v-9.3c0-4.68,1.13-8.82,4.34-13.19,1.72-2.35-.03-5.68-2.95-5.68h-15.71c-10.76,0-20.59,7.02-23.21,17.46-1.21,4.82-.78,9.42.38,13.08,7.38,23.31,32.19,40.45,61.66,40.45,36.29,0,65.57-25.16,65.69-54.89.09-22.1-13.91-48.65-50.65-51.45Z"/>
        <g class="cls-8">
          <path class="cls-5" d="M117.57,83.15l36.06-36.06c0-19.92-16.15-36.06-36.06-36.06-19.92,0-36.06,16.15-36.06,36.06,0,19.92,16.15,36.06,36.06,36.06Z"/>
        </g>
      </g>
      <g>
        <path class="cls-3" d="M0,59.25h0c0,1.63,1.32,2.96,2.95,2.97l15.95.08c1.65,0,2.99,1.35,2.99,3.01v115.13c0,1.66,1.35,3.01,3.01,3.01h7.04c14.94,0,27.05-12.11,27.05-27.05V12.06c0-1.66-1.35-3.01-3.01-3.01h0c-11.34,0-21.28,7.38-24.75,18.17-4.23,13.15-14.64,25.35-29.09,29.18-1.27.34-2.13,1.53-2.13,2.84Z"/>
        <g class="cls-7">
          <path class="cls-5" d="M-9.97,152.16l36.06,36.06c19.92,0,36.06-16.15,36.06-36.06,0-19.92-16.15-36.06-36.06-36.06-19.92,0-36.06,16.15-36.06,36.06Z"/>
        </g>
      </g>
      <g>
        <g>
          <path class="cls-3" d="M290.89,62.32h-56.33c-1.66,0-3.01,1.35-3.01,3.01v4.29c0,16.6,13.45,30.05,30.05,30.05h26.72c13.59,0,24.61,11.03,24.61,24.62,0,10.89,0,19.48,0,19.48,0,11.75-10.97,21.28-24.51,21.28s-24.51-9.53-24.51-21.28v-9.3c0-4.68,1.15-8.82,4.34-13.19,1.72-2.35-.03-5.67-2.95-5.67h-15.53c-15.28,0-27.07,14.2-23.44,29.05.13.52.27,1.02.42,1.5,7.38,23.31,32.19,40.45,61.66,40.45,35.29,0,63.9-28.92,63.9-62.85s-24.76-61.44-61.44-61.44ZM246.47,79.01c-2.47,0-4.47-2-4.47-4.47s2-4.47,4.47-4.47,4.47,2,4.47,4.47-2,4.47-4.47,4.47Z"/>
          <path class="cls-6" d="M309.88,8.99h-48.26c-16.6,0-30.05,13.45-30.05,30.05v13.6c0,2.86,3.63,4.11,5.36,1.84,4.48-5.87,11.39-9.97,21.83-9.97h47.85c16.6,0,30.05-13.45,30.05-30.05V2.99c0-2.65-3.15-3.96-5.09-2.16-7.14,6.63-14.73,8.16-21.69,8.16Z"/>
        </g>
        <g>
          <path class="cls-3" d="M293.18,124.83c0,.26.22.48.48.48h3.62c3.32,0,6.01,2.69,6.01,6.01v7.57c0,2.36-1.92,4.28-4.28,4.28h0c-.32,0-.57-.26-.57-.57v-12.43c0-.27-.22-.48-.48-.48h-4.3c-.26,0-.48.22-.48.48v8.73c0,2.36-1.92,4.28-4.28,4.28h0c-.32,0-.57-.26-.57-.57v-22.62c0-2.41,1.97-4.38,4.38-4.38h0c.27,0,.48.22.48.48v8.75Z"/>
          <path class="cls-3" d="M280.69,138.81c-.26,0-.48-.22-.48-.48v-7.64c0-.53.39-1,.93-1h1.53c2.12,0,3.83-1.78,3.7-3.93-.01-.25-.24-.44-.49-.44h-5.18c-.27,0-.48-.22-.48-.48v-8.75c0-.27-.22-.48-.48-.48h0c-2.42,0-4.38,1.96-4.38,4.38v17.19c0,3.32,2.69,6.01,6.01,6.01h.7c2.12,0,3.82-1.78,3.7-3.93-.01-.25-.24-.44-.49-.44h-4.58Z"/>
        </g>
        <g class="cls-1">
          <path class="cls-5" d="M280.63,101.59h-49.48c-13.66,13.66-13.66,35.82,0,49.48,13.66,13.66,35.82,13.66,49.48,0,13.66-13.66,13.66-35.82,0-49.48Z"/>
        </g>
        <g>
          <path class="cls-2" d="M309.88,8.99h-48.26c-16.6,0-30.05,13.45-30.05,30.05v13.6c0,2.86,3.63,4.11,5.36,1.84,4.48-5.87,11.39-9.97,21.83-9.97h47.85c16.6,0,30.05-13.45,30.05-30.05V2.99c0-2.65-3.15-3.96-5.09-2.16-7.14,6.63-14.73,8.16-21.69,8.16Z"/>
          <g class="cls-9">
            <path class="cls-5" d="M353.84,7.05l-36.06-36.06c-19.92,0-36.06,16.15-36.06,36.06,0,19.92,16.15,36.06,36.06,36.06,19.92,0,36.06-16.15,36.06-36.06Z"/>
          </g>
        </g>
      </g>
    </g>
  </g>
</svg>