<?xml version="1.0" encoding="UTF-8"?>
<svg id="_レイヤー_2" data-name="レイヤー 2" xmlns="http://www.w3.org/2000/svg" xmlns:xlink="http://www.w3.org/1999/xlink" viewBox="0 0 388.24 388.24">
  <defs>
    <style>
      .cls-1 {
        fill: url(#_名称未設定グラデーション_13);
      }

      .cls-1, .cls-2, .cls-3 {
        stroke-width: 0px;
      }

      .cls-2 {
        fill: #fff9f4;
      }

      .cls-3 {
        fill: #ef857a;
      }
    </style>
    <linearGradient id="_名称未設定グラデーション_13" data-name="名称未設定グラデーション 13" x1="134.1" y1="100.25" x2="325.61" y2="275.1" gradientUnits="userSpaceOnUse">
      <stop offset="0" stop-color="#f77d79"/>
      <stop offset=".53" stop-color="#6aa4ea"/>
      <stop offset="1" stop-color="#f77d79"/>
    </linearGradient>
  </defs>
  <g id="design">
    <g>
      <circle class="cls-2" cx="194.12" cy="194.12" r="194.12"/>
      <g>
        <g>
          <path class="cls-3" d="M154.16,77.61h-17.41c-2.1,0-3.79-1.7-3.79-3.84s1.7-3.79,3.79-3.79h6.34v-18.26l-4.89,3.19c-1.75,1.15-4.14.65-5.29-1.15-1.15-1.75-.65-4.14,1.15-5.29l10.68-6.94c.8-.45,1.5-.75,2.4-.75,2.2,0,4.04,1.85,4.04,4.04v25.15h2.99c2.15,0,3.84,1.7,3.84,3.79s-1.7,3.84-3.84,3.84Z"/>
          <path class="cls-3" d="M173.52,78.06c-4.14,0-6.84-.95-8.38-2.4-.85-.85-1.4-1.95-1.4-2.99,0-1.95,1.45-3.44,3.29-3.44.8,0,1.55.3,2.5.9,1.05.65,2.1.95,3.59.95,2.79,0,4.74-1.6,4.74-4.54,0-3.09-2-4.09-4.64-4.09-2,0-4.09-.6-4.09-3.44,0-2.64,2.35-3.39,4.34-3.39,2.79,0,4.84-.85,4.84-3.69,0-2.15-1.05-3.99-4.04-3.99-1.6,0-2.89.45-3.99,1.1-.7.45-1.5,1-2.74,1-1.55,0-3.14-1.1-3.14-3.39,0-1.25.6-2.54,2.1-3.64,1.35-1.05,4.09-2.2,8.13-2.2,8.13,0,10.98,5.74,10.98,9.83s-1.5,6.69-5.19,8.23c3.44,1.25,5.64,3.84,5.64,8.73,0,5.24-4.04,10.48-12.52,10.48Z"/>
          <path class="cls-3" d="M201.71,78.06c-3.14,0-5.89-.6-8.13-1.95-1.45-.95-2.05-2.25-2.05-3.49,0-2,1.5-3.84,3.59-3.84.7,0,1.45.2,2.2.7.6.35,2.25,1.5,4.39,1.5,3.09,0,4.09-2.2,4.09-5.09,0-3.39-1.7-4.64-3.24-4.64-1.8,0-2.69.7-3.59,1.35-.8.55-1.5,1.05-2.59,1.05-2.15,0-3.89-1.55-3.79-3.99l.5-14.67c.1-2.2,1.95-3.74,3.84-3.74h11.63c2.1,0,3.79,1.75,3.79,3.84s-1.7,3.84-3.79,3.84h-8.23l-.25,5.94c1.1-.3,2.2-.45,3.24-.45,6.34,0,10.58,4.24,10.58,11.48,0,6.24-3.69,12.17-12.17,12.17Z"/>
          <path class="cls-3" d="M236.25,78.8h-1.51c-5.44,0-7.62-3.57-7.62-8.83v-5.85h-.37c-1.29,0-2.35-1.07-2.35-2.35s1.07-2.35,2.35-2.35h.37v-1.88c0-1.62,1.32-2.94,2.94-2.94s2.91,1.32,2.91,2.94v1.88h2.5c1.32,0,2.39,1.03,2.39,2.35s-1.07,2.35-2.39,2.35h-2.5v5.74c0,2.65.55,3.83,2.61,3.83h.66c1.4,0,2.54,1.14,2.54,2.54s-1.14,2.58-2.54,2.58Z"/>
          <path class="cls-3" d="M256.52,79.02c-1.62,0-2.94-1.29-2.94-2.91v-9.12c0-1.1-.29-2.32-2.13-2.32-.92,0-1.77.4-2.35,1.07v10.38c0,1.62-1.32,2.91-2.94,2.91s-2.91-1.29-2.91-2.91v-21.04c0-1.62,1.32-2.91,2.91-2.91s2.94,1.29,2.94,2.91v5.04c1.1-.59,2.46-.92,4.05-.92,4.64,0,6.29,2.76,6.29,7.06v9.86c0,1.62-1.29,2.91-2.91,2.91Z"/>
          <path class="cls-3" d="M93.66,120.74c-1.25,0-2.5-.7-2.87-2.35-.22-1.07-.48-2.17-.74-3.2h-7.65c-.26,1.03-.52,2.13-.74,3.2-.37,1.62-1.58,2.35-2.8,2.35-1.66,0-3.35-1.36-2.87-3.61,1.58-7.36,3.75-14.2,6.44-20.86,1.03-2.54,2.5-3.05,3.83-3.05s2.91.52,3.94,3.05c2.69,6.66,4.82,13.5,6.4,20.86.48,2.21-1.21,3.61-2.94,3.61ZM88.65,109.92c-.74-2.54-1.54-5-2.43-7.43-.88,2.43-1.69,4.89-2.43,7.43h4.86Z"/>
          <path class="cls-3" d="M116.47,120.63c-1.62,0-2.91-1.29-2.91-2.91v-9.12c0-1.1-.29-2.32-2.13-2.32-.96,0-1.8.4-2.39,1.07v10.38c0,1.62-1.29,2.91-2.91,2.91s-2.94-1.29-2.94-2.91v-10.74c0-1.1-.55-1.43-1.03-1.95-.37-.37-.74-.88-.74-1.62,0-1.69,1.21-2.39,2.94-2.39.85,0,1.73.26,2.5.81.29.22.59.48.85.81,1.32-1.14,3.09-1.84,5.41-1.84,4.64,0,6.29,2.76,6.29,7.06v9.86c0,1.62-1.32,2.91-2.94,2.91Z"/>
          <path class="cls-3" d="M140.09,120.63c-1.62,0-2.91-1.29-2.91-2.91v-9.12c0-1.1-.29-2.32-2.13-2.32-.96,0-1.8.4-2.39,1.07v10.38c0,1.62-1.29,2.91-2.91,2.91s-2.94-1.29-2.94-2.91v-10.74c0-1.1-.55-1.43-1.03-1.95-.37-.37-.74-.88-.74-1.62,0-1.69,1.21-2.39,2.94-2.39.85,0,1.73.26,2.5.81.29.22.59.48.85.81,1.32-1.14,3.09-1.84,5.41-1.84,4.64,0,6.29,2.76,6.29,7.06v9.86c0,1.62-1.32,2.91-2.94,2.91Z"/>
          <path class="cls-3" d="M152.85,99.03c-1.77,0-3.2-1.44-3.2-3.2s1.44-3.24,3.2-3.24,3.24,1.43,3.24,3.24-1.43,3.2-3.24,3.2ZM149.95,103.74c0-1.62,1.32-2.94,2.91-2.94s2.94,1.32,2.94,2.94v13.98c0,1.62-1.32,2.91-2.94,2.91s-2.91-1.29-2.91-2.91v-13.98Z"/>
          <path class="cls-3" d="M173.45,117.72c-1.07,2.46-2.35,2.91-3.83,2.91-1.66,0-2.87-.44-3.86-2.91-1.55-3.94-3.38-9.01-4.71-13.5-.63-2.06.99-3.42,2.61-3.42,1.03,0,2.06.55,2.46,1.88.99,3.27,2.35,7.5,3.53,10.78,1.18-3.24,2.54-7.39,3.64-10.74.44-1.32,1.47-1.91,2.54-1.91,1.66,0,3.38,1.47,2.69,3.57-1.51,4.56-3.35,9.34-5.08,13.35Z"/>
          <path class="cls-3" d="M197.26,112.5h-8.17v.59c0,1.84.88,2.94,2.61,2.94,1.18,0,1.95-.18,2.54-.37.77-.26,1.29-.51,2.06-.51,1.32,0,2.02.92,2.02,2.21,0,1.21-.99,2.02-2.28,2.54-1.47.55-3.35.74-4.78.74-5.96,0-7.98-3.83-7.98-8.2v-3.42c0-4.34,2.54-8.2,8.02-8.2s7.91,3.75,7.91,8.13v1.55c0,1.14-.88,2.02-1.95,2.02ZM193.61,108.23v-.41c0-1.69-.74-2.58-2.21-2.58s-2.32.88-2.32,2.58v.41h4.53Z"/>
          <path class="cls-3" d="M216.39,106.5c-.66,0-.96-.15-2.06-.15-1.43,0-2.28.63-2.69,1.51v9.86c0,1.62-1.29,2.91-2.91,2.91s-2.94-1.29-2.94-2.91v-10.74c0-1.1-.55-1.43-1.03-1.95-.37-.37-.74-.88-.74-1.62,0-1.69,1.14-2.39,2.94-2.39,1.44,0,2.83.81,3.72,2.02,1.73-1.99,3.97-2.21,5.08-2.21,1.73,0,3.35.96,3.35,2.8,0,1.47-.92,2.87-2.72,2.87Z"/>
          <path class="cls-3" d="M229.52,120.63c-2.72,0-4.12-.37-5.37-.77-1.21-.4-1.77-1.84-1.4-3.05.44-1.43,1.91-1.99,3.13-1.54,1.07.37,1.84.66,3.72.66,1.47,0,2.46-.48,2.46-1.29,0-1.66-2.61-1.47-5.08-2.17-2.17-.59-4.19-1.84-4.19-5.48,0-4.12,3.38-6.18,7.17-6.18,2.5,0,3.94.33,5.33.81,1.29.44,1.95,1.73,1.58,3.02-.4,1.25-1.73,1.99-3.02,1.58-1.47-.44-2.39-.7-3.57-.7-1.47,0-2.06.55-2.06,1.07,0,1.47,2.06,1.47,4.45,2.02,2.39.55,4.89,1.66,4.89,5.74,0,4.67-4.16,6.29-8.06,6.29Z"/>
          <path class="cls-3" d="M256.34,120.63c-.7,0-1.4-.11-2.1-.48-.4-.22-.85-.51-1.18-.92-1.43,1.07-3.42,1.4-5,1.4-4.34,0-6.73-2.24-6.73-5.92v-.26c0-3.64,2.8-5.67,7.54-5.67h2.83v-.63c0-1.73-.52-2.8-2.32-2.8-1.1,0-1.88.22-2.5.44-.74.26-1.29.55-1.99.55-1.32,0-2.21-.99-2.21-2.17,0-1.25.99-2.06,2.28-2.58,1.66-.66,3.75-.81,4.93-.81,5.37,0,7.62,2.24,7.62,8.09v5.78c0,1.14.44,1.43.96,1.95.33.37.7.88.7,1.66,0,1.69-1.18,2.35-2.83,2.35ZM249.39,116.62c1.29,0,2.32-.77,2.32-2.43v-1.32h-2.1c-1.77,0-2.5.63-2.5,1.73v.22c0,1.25.88,1.8,2.28,1.8Z"/>
          <path class="cls-3" d="M274.77,106.5c-.66,0-.96-.15-2.06-.15-1.43,0-2.28.63-2.69,1.51v9.86c0,1.62-1.29,2.91-2.91,2.91s-2.94-1.29-2.94-2.91v-10.74c0-1.1-.55-1.43-1.03-1.95-.37-.37-.74-.88-.74-1.62,0-1.69,1.14-2.39,2.94-2.39,1.44,0,2.83.81,3.72,2.02,1.73-1.99,3.97-2.21,5.08-2.21,1.73,0,3.35.96,3.35,2.8,0,1.47-.92,2.87-2.72,2.87Z"/>
          <path class="cls-3" d="M283.82,127.14c-2.06.18-3.24-1.32-3.24-2.83,0-1.29.77-2.61,2.58-2.8,1.25-.11,2.65-.33,3.9-2.17-2.02-5-4.49-11.66-5.48-15.05-.63-2.13,1.07-3.5,2.76-3.5,1.07,0,2.1.62,2.46,1.99.66,2.17,1.73,5.74,2.94,9.34l2.83-9.38c.4-1.4,1.58-1.95,2.65-1.95,1.84,0,3.49,1.62,2.69,3.9l-4.56,12.91c-2.13,5.92-4.67,9.05-9.53,9.53Z"/>
          <path class="cls-3" d="M47.67,167.99c-2.46,0-4.75-.22-6.88-.96-1.4-.48-2.02-1.62-2.02-2.76,0-1.43.96-2.76,2.54-2.76.88,0,1.58.44,2.8.74.77.22,1.69.37,2.98.37,3.35,0,4.71-1.07,4.71-2.83,0-1.29-.59-1.95-3.64-2.72-1.73-.48-4.49-1.03-6-1.95-1.77-1.07-3.13-2.87-3.13-5.89,0-5.7,4.34-8.72,9.46-8.72,2.06,0,4.05.18,5.89.77,1.4.44,2.06,1.54,2.06,2.65,0,1.43-.96,2.83-2.72,2.83-.77,0-1.36-.33-2.32-.59-.59-.15-1.32-.26-2.43-.26-2.58,0-4.01.88-4.01,2.5s1.03,2.13,3.61,2.76c2.24.51,4.6,1.03,6.03,1.91,2.21,1.4,3.16,3.42,3.16,6,0,6.07-4.49,8.9-10.08,8.9Z"/>
          <path class="cls-3" d="M74.78,158.05h-4.12v6.95c0,1.66-1.32,2.98-2.98,2.98s-2.98-1.32-2.98-2.98v-21.19c0-1.62,1.32-2.98,2.98-2.98h6.92c6.44,0,8.39,4.01,8.39,7.73v1.91c0,4.53-2.94,7.58-8.2,7.58ZM74.53,152.65c2.06,0,2.54-1.14,2.54-2.28v-1.66c0-1.18-.52-2.28-3.02-2.28h-3.38v6.22h3.86Z"/>
          <path class="cls-3" d="M103.22,167.65h-11.52c-1.58,0-2.83-1.25-2.83-2.83v-21.15c0-1.54,1.25-2.83,2.83-2.83h11.04c1.58,0,2.83,1.29,2.83,2.83s-1.25,2.83-2.83,2.83h-7.91v5h7.14c1.51,0,2.76,1.25,2.76,2.76s-1.25,2.72-2.76,2.72h-7.14v5h8.39c1.54,0,2.8,1.29,2.8,2.83s-1.25,2.83-2.8,2.83Z"/>
          <path class="cls-3" d="M125.44,146.83c-.59,0-.99-.15-1.73-.48-.55-.29-1.25-.51-2.32-.51-2.65,0-4.12,1.69-4.12,6.55v3.79c0,5.08,1.51,6.44,3.97,6.44.96,0,1.91-.22,2.69-.59.63-.29,1.1-.44,1.66-.44,1.29,0,2.43.99,2.43,2.46,0,.77-.33,1.62-1.18,2.28-1.36,1.14-4.05,1.66-5.59,1.66-7.14,0-9.93-4.78-9.93-11.74v-4.05c0-6.66,2.72-11.7,10.08-11.7,1.91,0,4.23.55,5.44,1.47.92.66,1.29,1.47,1.29,2.21,0,1.29-.92,2.65-2.69,2.65Z"/>
          <path class="cls-3" d="M136.66,167.99c-1.66,0-2.98-1.32-2.98-2.98v-21.52c0-1.62,1.32-2.98,2.98-2.98s2.98,1.36,2.98,2.98v21.52c0,1.66-1.32,2.98-2.98,2.98Z"/>
          <path class="cls-3" d="M162.34,167.99c-1.25,0-2.5-.7-2.87-2.35-.22-1.07-.48-2.17-.74-3.2h-7.65c-.26,1.03-.52,2.13-.74,3.2-.37,1.62-1.58,2.35-2.8,2.35-1.66,0-3.35-1.36-2.87-3.61,1.58-7.36,3.75-14.2,6.44-20.86,1.03-2.54,2.5-3.05,3.83-3.05s2.91.52,3.94,3.05c2.69,6.66,4.82,13.5,6.4,20.86.48,2.21-1.21,3.61-2.94,3.61ZM157.34,157.17c-.74-2.54-1.54-5-2.43-7.43-.88,2.43-1.69,4.89-2.43,7.43h4.86Z"/>
          <path class="cls-3" d="M184.49,167.65h-11.33c-1.58,0-2.83-1.25-2.83-2.83v-21.34c0-1.62,1.32-2.98,2.98-2.98s2.98,1.36,2.98,2.98v18.5h8.2c1.58,0,2.83,1.29,2.83,2.83s-1.25,2.83-2.83,2.83Z"/>
          <path class="cls-3" d="M220.21,167.65h-11.52c-1.58,0-2.83-1.25-2.83-2.83v-21.15c0-1.54,1.25-2.83,2.83-2.83h11.04c1.58,0,2.83,1.29,2.83,2.83s-1.25,2.83-2.83,2.83h-7.91v5h7.14c1.51,0,2.76,1.25,2.76,2.76s-1.25,2.72-2.76,2.72h-7.14v5h8.39c1.54,0,2.8,1.29,2.8,2.83s-1.25,2.83-2.8,2.83Z"/>
          <path class="cls-3" d="M240.37,164.86c-.81,2.32-2.24,3.13-3.75,3.13-1.66,0-2.94-.77-3.75-3.16-2.35-7.06-4.49-13.87-6.33-20.49-.66-2.32,1.18-3.83,2.94-3.83,1.18,0,2.35.7,2.76,2.21,1.4,4.89,2.91,10.3,4.56,15.42,1.69-5.15,3.24-10.63,4.67-15.56.4-1.43,1.51-2.06,2.61-2.06,1.69,0,3.42,1.43,2.83,3.57-1.91,6.7-4.12,13.61-6.55,20.79Z"/>
          <path class="cls-3" d="M266.35,167.65h-11.52c-1.58,0-2.83-1.25-2.83-2.83v-21.15c0-1.54,1.25-2.83,2.83-2.83h11.04c1.58,0,2.83,1.29,2.83,2.83s-1.25,2.83-2.83,2.83h-7.91v5h7.14c1.51,0,2.76,1.25,2.76,2.76s-1.25,2.72-2.76,2.72h-7.14v5h8.39c1.54,0,2.8,1.29,2.8,2.83s-1.25,2.83-2.8,2.83Z"/>
          <path class="cls-3" d="M291.33,167.99c-1.29,0-2.24-.44-2.87-1.43l-8.09-13.65v12.36c0,1.51-1.21,2.72-2.72,2.72s-2.72-1.21-2.72-2.72v-22.04c0-1.47,1.1-2.72,2.91-2.72,1.29,0,2.28.55,2.87,1.54l8.06,13.58v-12.4c0-1.47,1.21-2.72,2.72-2.72s2.72,1.25,2.72,2.72v22.04c0,1.51-1.18,2.72-2.87,2.72Z"/>
          <path class="cls-3" d="M318.07,146.61h-4.97v18.39c0,1.66-1.32,2.98-2.98,2.98s-2.98-1.32-2.98-2.98v-18.39h-4.93c-1.58,0-2.87-1.29-2.87-2.87s1.29-2.91,2.87-2.91h15.86c1.58,0,2.87,1.29,2.87,2.91s-1.29,2.87-2.87,2.87Z"/>
          <path class="cls-3" d="M333.71,167.99c-2.46,0-4.75-.22-6.88-.96-1.4-.48-2.02-1.62-2.02-2.76,0-1.43.96-2.76,2.54-2.76.88,0,1.58.44,2.8.74.77.22,1.69.37,2.98.37,3.35,0,4.71-1.07,4.71-2.83,0-1.29-.59-1.95-3.64-2.72-1.73-.48-4.49-1.03-6-1.95-1.77-1.07-3.13-2.87-3.13-5.89,0-5.7,4.34-8.72,9.45-8.72,2.06,0,4.05.18,5.89.77,1.4.44,2.06,1.54,2.06,2.65,0,1.43-.96,2.83-2.72,2.83-.77,0-1.36-.33-2.32-.59-.59-.15-1.32-.26-2.43-.26-2.58,0-4.01.88-4.01,2.5s1.03,2.13,3.6,2.76c2.24.51,4.6,1.03,6.03,1.91,2.21,1.4,3.16,3.42,3.16,6,0,6.07-4.49,8.9-10.08,8.9Z"/>
        </g>
        <g>
          <path class="cls-1" d="M154.16,77.61h-17.41c-2.1,0-3.79-1.7-3.79-3.84s1.7-3.79,3.79-3.79h6.34v-18.26l-4.89,3.19c-1.75,1.15-4.14.65-5.29-1.15-1.15-1.75-.65-4.14,1.15-5.29l10.68-6.94c.8-.45,1.5-.75,2.4-.75,2.2,0,4.04,1.85,4.04,4.04v25.15h2.99c2.15,0,3.84,1.7,3.84,3.79s-1.7,3.84-3.84,3.84Z"/>
          <path class="cls-1" d="M173.52,78.06c-4.14,0-6.84-.95-8.38-2.4-.85-.85-1.4-1.95-1.4-2.99,0-1.95,1.45-3.44,3.29-3.44.8,0,1.55.3,2.5.9,1.05.65,2.1.95,3.59.95,2.79,0,4.74-1.6,4.74-4.54,0-3.09-2-4.09-4.64-4.09-2,0-4.09-.6-4.09-3.44,0-2.64,2.35-3.39,4.34-3.39,2.79,0,4.84-.85,4.84-3.69,0-2.15-1.05-3.99-4.04-3.99-1.6,0-2.89.45-3.99,1.1-.7.45-1.5,1-2.74,1-1.55,0-3.14-1.1-3.14-3.39,0-1.25.6-2.54,2.1-3.64,1.35-1.05,4.09-2.2,8.13-2.2,8.13,0,10.98,5.74,10.98,9.83s-1.5,6.69-5.19,8.23c3.44,1.25,5.64,3.84,5.64,8.73,0,5.24-4.04,10.48-12.52,10.48Z"/>
          <path class="cls-1" d="M201.71,78.06c-3.14,0-5.89-.6-8.13-1.95-1.45-.95-2.05-2.25-2.05-3.49,0-2,1.5-3.84,3.59-3.84.7,0,1.45.2,2.2.7.6.35,2.25,1.5,4.39,1.5,3.09,0,4.09-2.2,4.09-5.09,0-3.39-1.7-4.64-3.24-4.64-1.8,0-2.69.7-3.59,1.35-.8.55-1.5,1.05-2.59,1.05-2.15,0-3.89-1.55-3.79-3.99l.5-14.67c.1-2.2,1.95-3.74,3.84-3.74h11.63c2.1,0,3.79,1.75,3.79,3.84s-1.7,3.84-3.79,3.84h-8.23l-.25,5.94c1.1-.3,2.2-.45,3.24-.45,6.34,0,10.58,4.24,10.58,11.48,0,6.24-3.69,12.17-12.17,12.17Z"/>
          <path class="cls-1" d="M236.25,78.8h-1.51c-5.44,0-7.62-3.57-7.62-8.83v-5.85h-.37c-1.29,0-2.35-1.07-2.35-2.35s1.07-2.35,2.35-2.35h.37v-1.88c0-1.62,1.32-2.94,2.94-2.94s2.91,1.32,2.91,2.94v1.88h2.5c1.32,0,2.39,1.03,2.39,2.35s-1.07,2.35-2.39,2.35h-2.5v5.74c0,2.65.55,3.83,2.61,3.83h.66c1.4,0,2.54,1.14,2.54,2.54s-1.14,2.58-2.54,2.58Z"/>
          <path class="cls-1" d="M256.52,79.02c-1.62,0-2.94-1.29-2.94-2.91v-9.12c0-1.1-.29-2.32-2.13-2.32-.92,0-1.77.4-2.35,1.07v10.38c0,1.62-1.32,2.91-2.94,2.91s-2.91-1.29-2.91-2.91v-21.04c0-1.62,1.32-2.91,2.91-2.91s2.94,1.29,2.94,2.91v5.04c1.1-.59,2.46-.92,4.05-.92,4.64,0,6.29,2.76,6.29,7.06v9.86c0,1.62-1.29,2.91-2.91,2.91Z"/>
          <path class="cls-1" d="M93.66,120.74c-1.25,0-2.5-.7-2.87-2.35-.22-1.07-.48-2.17-.74-3.2h-7.65c-.26,1.03-.52,2.13-.74,3.2-.37,1.62-1.58,2.35-2.8,2.35-1.66,0-3.35-1.36-2.87-3.61,1.58-7.36,3.75-14.2,6.44-20.86,1.03-2.54,2.5-3.05,3.83-3.05s2.91.52,3.94,3.05c2.69,6.66,4.82,13.5,6.4,20.86.48,2.21-1.21,3.61-2.94,3.61ZM88.65,109.92c-.74-2.54-1.54-5-2.43-7.43-.88,2.43-1.69,4.89-2.43,7.43h4.86Z"/>
          <path class="cls-1" d="M116.47,120.63c-1.62,0-2.91-1.29-2.91-2.91v-9.12c0-1.1-.29-2.32-2.13-2.32-.96,0-1.8.4-2.39,1.07v10.38c0,1.62-1.29,2.91-2.91,2.91s-2.94-1.29-2.94-2.91v-10.74c0-1.1-.55-1.43-1.03-1.95-.37-.37-.74-.88-.74-1.62,0-1.69,1.21-2.39,2.94-2.39.85,0,1.73.26,2.5.81.29.22.59.48.85.81,1.32-1.14,3.09-1.84,5.41-1.84,4.64,0,6.29,2.76,6.29,7.06v9.86c0,1.62-1.32,2.91-2.94,2.91Z"/>
          <path class="cls-1" d="M140.09,120.63c-1.62,0-2.91-1.29-2.91-2.91v-9.12c0-1.1-.29-2.32-2.13-2.32-.96,0-1.8.4-2.39,1.07v10.38c0,1.62-1.29,2.91-2.91,2.91s-2.94-1.29-2.94-2.91v-10.74c0-1.1-.55-1.43-1.03-1.95-.37-.37-.74-.88-.74-1.62,0-1.69,1.21-2.39,2.94-2.39.85,0,1.73.26,2.5.81.29.22.59.48.85.81,1.32-1.14,3.09-1.84,5.41-1.84,4.64,0,6.29,2.76,6.29,7.06v9.86c0,1.62-1.32,2.91-2.94,2.91Z"/>
          <path class="cls-1" d="M152.85,99.03c-1.77,0-3.2-1.44-3.2-3.2s1.44-3.24,3.2-3.24,3.24,1.43,3.24,3.24-1.43,3.2-3.24,3.2ZM149.95,103.74c0-1.62,1.32-2.94,2.91-2.94s2.94,1.32,2.94,2.94v13.98c0,1.62-1.32,2.91-2.94,2.91s-2.91-1.29-2.91-2.91v-13.98Z"/>
          <path class="cls-1" d="M173.45,117.72c-1.07,2.46-2.35,2.91-3.83,2.91-1.66,0-2.87-.44-3.86-2.91-1.55-3.94-3.38-9.01-4.71-13.5-.63-2.06.99-3.42,2.61-3.42,1.03,0,2.06.55,2.46,1.88.99,3.27,2.35,7.5,3.53,10.78,1.18-3.24,2.54-7.39,3.64-10.74.44-1.32,1.47-1.91,2.54-1.91,1.66,0,3.38,1.47,2.69,3.57-1.51,4.56-3.35,9.34-5.08,13.35Z"/>
          <path class="cls-1" d="M197.26,112.5h-8.17v.59c0,1.84.88,2.94,2.61,2.94,1.18,0,1.95-.18,2.54-.37.77-.26,1.29-.51,2.06-.51,1.32,0,2.02.92,2.02,2.21,0,1.21-.99,2.02-2.28,2.54-1.47.55-3.35.74-4.78.74-5.96,0-7.98-3.83-7.98-8.2v-3.42c0-4.34,2.54-8.2,8.02-8.2s7.91,3.75,7.91,8.13v1.55c0,1.14-.88,2.02-1.95,2.02ZM193.61,108.23v-.41c0-1.69-.74-2.58-2.21-2.58s-2.32.88-2.32,2.58v.41h4.53Z"/>
          <path class="cls-1" d="M216.39,106.5c-.66,0-.96-.15-2.06-.15-1.43,0-2.28.63-2.69,1.51v9.86c0,1.62-1.29,2.91-2.91,2.91s-2.94-1.29-2.94-2.91v-10.74c0-1.1-.55-1.43-1.03-1.95-.37-.37-.74-.88-.74-1.62,0-1.69,1.14-2.39,2.94-2.39,1.44,0,2.83.81,3.72,2.02,1.73-1.99,3.97-2.21,5.08-2.21,1.73,0,3.35.96,3.35,2.8,0,1.47-.92,2.87-2.72,2.87Z"/>
          <path class="cls-1" d="M229.52,120.63c-2.72,0-4.12-.37-5.37-.77-1.21-.4-1.77-1.84-1.4-3.05.44-1.43,1.91-1.99,3.13-1.54,1.07.37,1.84.66,3.72.66,1.47,0,2.46-.48,2.46-1.29,0-1.66-2.61-1.47-5.08-2.17-2.17-.59-4.19-1.84-4.19-5.48,0-4.12,3.38-6.18,7.17-6.18,2.5,0,3.94.33,5.33.81,1.29.44,1.95,1.73,1.58,3.02-.4,1.25-1.73,1.99-3.02,1.58-1.47-.44-2.39-.7-3.57-.7-1.47,0-2.06.55-2.06,1.07,0,1.47,2.06,1.47,4.45,2.02,2.39.55,4.89,1.66,4.89,5.74,0,4.67-4.16,6.29-8.06,6.29Z"/>
          <path class="cls-1" d="M256.34,120.63c-.7,0-1.4-.11-2.1-.48-.4-.22-.85-.51-1.18-.92-1.43,1.07-3.42,1.4-5,1.4-4.34,0-6.73-2.24-6.73-5.92v-.26c0-3.64,2.8-5.67,7.54-5.67h2.83v-.63c0-1.73-.52-2.8-2.32-2.8-1.1,0-1.88.22-2.5.44-.74.26-1.29.55-1.99.55-1.32,0-2.21-.99-2.21-2.17,0-1.25.99-2.06,2.28-2.58,1.66-.66,3.75-.81,4.93-.81,5.37,0,7.62,2.24,7.62,8.09v5.78c0,1.14.44,1.43.96,1.95.33.37.7.88.7,1.66,0,1.69-1.18,2.35-2.83,2.35ZM249.39,116.62c1.29,0,2.32-.77,2.32-2.43v-1.32h-2.1c-1.77,0-2.5.63-2.5,1.73v.22c0,1.25.88,1.8,2.28,1.8Z"/>
          <path class="cls-1" d="M274.77,106.5c-.66,0-.96-.15-2.06-.15-1.43,0-2.28.63-2.69,1.51v9.86c0,1.62-1.29,2.91-2.91,2.91s-2.94-1.29-2.94-2.91v-10.74c0-1.1-.55-1.43-1.03-1.95-.37-.37-.74-.88-.74-1.62,0-1.69,1.14-2.39,2.94-2.39,1.44,0,2.83.81,3.72,2.02,1.73-1.99,3.97-2.21,5.08-2.21,1.73,0,3.35.96,3.35,2.8,0,1.47-.92,2.87-2.72,2.87Z"/>
          <path class="cls-1" d="M283.82,127.14c-2.06.18-3.24-1.32-3.24-2.83,0-1.29.77-2.61,2.58-2.8,1.25-.11,2.65-.33,3.9-2.17-2.02-5-4.49-11.66-5.48-15.05-.63-2.13,1.07-3.5,2.76-3.5,1.07,0,2.1.62,2.46,1.99.66,2.17,1.73,5.74,2.94,9.34l2.83-9.38c.4-1.4,1.58-1.95,2.65-1.95,1.84,0,3.49,1.62,2.69,3.9l-4.56,12.91c-2.13,5.92-4.67,9.05-9.53,9.53Z"/>
          <path class="cls-1" d="M47.67,167.99c-2.46,0-4.75-.22-6.88-.96-1.4-.48-2.02-1.62-2.02-2.76,0-1.43.96-2.76,2.54-2.76.88,0,1.58.44,2.8.74.77.22,1.69.37,2.98.37,3.35,0,4.71-1.07,4.71-2.83,0-1.29-.59-1.95-3.64-2.72-1.73-.48-4.49-1.03-6-1.95-1.77-1.07-3.13-2.87-3.13-5.89,0-5.7,4.34-8.72,9.46-8.72,2.06,0,4.05.18,5.89.77,1.4.44,2.06,1.54,2.06,2.65,0,1.43-.96,2.83-2.72,2.83-.77,0-1.36-.33-2.32-.59-.59-.15-1.32-.26-2.43-.26-2.58,0-4.01.88-4.01,2.5s1.03,2.13,3.61,2.76c2.24.51,4.6,1.03,6.03,1.91,2.21,1.4,3.16,3.42,3.16,6,0,6.07-4.49,8.9-10.08,8.9Z"/>
          <path class="cls-1" d="M74.78,158.05h-4.12v6.95c0,1.66-1.32,2.98-2.98,2.98s-2.98-1.32-2.98-2.98v-21.19c0-1.62,1.32-2.98,2.98-2.98h6.92c6.44,0,8.39,4.01,8.39,7.73v1.91c0,4.53-2.94,7.58-8.2,7.58ZM74.53,152.65c2.06,0,2.54-1.14,2.54-2.28v-1.66c0-1.18-.52-2.28-3.02-2.28h-3.38v6.22h3.86Z"/>
          <path class="cls-1" d="M103.22,167.65h-11.52c-1.58,0-2.83-1.25-2.83-2.83v-21.15c0-1.54,1.25-2.83,2.83-2.83h11.04c1.58,0,2.83,1.29,2.83,2.83s-1.25,2.83-2.83,2.83h-7.91v5h7.14c1.51,0,2.76,1.25,2.76,2.76s-1.25,2.72-2.76,2.72h-7.14v5h8.39c1.54,0,2.8,1.29,2.8,2.83s-1.25,2.83-2.8,2.83Z"/>
          <path class="cls-1" d="M125.44,146.83c-.59,0-.99-.15-1.73-.48-.55-.29-1.25-.51-2.32-.51-2.65,0-4.12,1.69-4.12,6.55v3.79c0,5.08,1.51,6.44,3.97,6.44.96,0,1.91-.22,2.69-.59.63-.29,1.1-.44,1.66-.44,1.29,0,2.43.99,2.43,2.46,0,.77-.33,1.62-1.18,2.28-1.36,1.14-4.05,1.66-5.59,1.66-7.14,0-9.93-4.78-9.93-11.74v-4.05c0-6.66,2.72-11.7,10.08-11.7,1.91,0,4.23.55,5.44,1.47.92.66,1.29,1.47,1.29,2.21,0,1.29-.92,2.65-2.69,2.65Z"/>
          <path class="cls-1" d="M136.66,167.99c-1.66,0-2.98-1.32-2.98-2.98v-21.52c0-1.62,1.32-2.98,2.98-2.98s2.98,1.36,2.98,2.98v21.52c0,1.66-1.32,2.98-2.98,2.98Z"/>
          <path class="cls-1" d="M162.34,167.99c-1.25,0-2.5-.7-2.87-2.35-.22-1.07-.48-2.17-.74-3.2h-7.65c-.26,1.03-.52,2.13-.74,3.2-.37,1.62-1.58,2.35-2.8,2.35-1.66,0-3.35-1.36-2.87-3.61,1.58-7.36,3.75-14.2,6.44-20.86,1.03-2.54,2.5-3.05,3.83-3.05s2.91.52,3.94,3.05c2.69,6.66,4.82,13.5,6.4,20.86.48,2.21-1.21,3.61-2.94,3.61ZM157.34,157.17c-.74-2.54-1.54-5-2.43-7.43-.88,2.43-1.69,4.89-2.43,7.43h4.86Z"/>
          <path class="cls-1" d="M184.49,167.65h-11.33c-1.58,0-2.83-1.25-2.83-2.83v-21.34c0-1.62,1.32-2.98,2.98-2.98s2.98,1.36,2.98,2.98v18.5h8.2c1.58,0,2.83,1.29,2.83,2.83s-1.25,2.83-2.83,2.83Z"/>
          <path class="cls-1" d="M220.21,167.65h-11.52c-1.58,0-2.83-1.25-2.83-2.83v-21.15c0-1.54,1.25-2.83,2.83-2.83h11.04c1.58,0,2.83,1.29,2.83,2.83s-1.25,2.83-2.83,2.83h-7.91v5h7.14c1.51,0,2.76,1.25,2.76,2.76s-1.25,2.72-2.76,2.72h-7.14v5h8.39c1.54,0,2.8,1.29,2.8,2.83s-1.25,2.83-2.8,2.83Z"/>
          <path class="cls-1" d="M240.37,164.86c-.81,2.32-2.24,3.13-3.75,3.13-1.66,0-2.94-.77-3.75-3.16-2.35-7.06-4.49-13.87-6.33-20.49-.66-2.32,1.18-3.83,2.94-3.83,1.18,0,2.35.7,2.76,2.21,1.4,4.89,2.91,10.3,4.56,15.42,1.69-5.15,3.24-10.63,4.67-15.56.4-1.43,1.51-2.06,2.61-2.06,1.69,0,3.42,1.43,2.83,3.57-1.91,6.7-4.12,13.61-6.55,20.79Z"/>
          <path class="cls-1" d="M266.35,167.65h-11.52c-1.58,0-2.83-1.25-2.83-2.83v-21.15c0-1.54,1.25-2.83,2.83-2.83h11.04c1.58,0,2.83,1.29,2.83,2.83s-1.25,2.83-2.83,2.83h-7.91v5h7.14c1.51,0,2.76,1.25,2.76,2.76s-1.25,2.72-2.76,2.72h-7.14v5h8.39c1.54,0,2.8,1.29,2.8,2.83s-1.25,2.83-2.8,2.83Z"/>
          <path class="cls-1" d="M291.33,167.99c-1.29,0-2.24-.44-2.87-1.43l-8.09-13.65v12.36c0,1.51-1.21,2.72-2.72,2.72s-2.72-1.21-2.72-2.72v-22.04c0-1.47,1.1-2.72,2.91-2.72,1.29,0,2.28.55,2.87,1.54l8.06,13.58v-12.4c0-1.47,1.21-2.72,2.72-2.72s2.72,1.25,2.72,2.72v22.04c0,1.51-1.18,2.72-2.87,2.72Z"/>
          <path class="cls-1" d="M318.07,146.61h-4.97v18.39c0,1.66-1.32,2.98-2.98,2.98s-2.98-1.32-2.98-2.98v-18.39h-4.93c-1.58,0-2.87-1.29-2.87-2.87s1.29-2.91,2.87-2.91h15.86c1.58,0,2.87,1.29,2.87,2.91s-1.29,2.87-2.87,2.87Z"/>
          <path class="cls-1" d="M333.71,167.99c-2.46,0-4.75-.22-6.88-.96-1.4-.48-2.02-1.62-2.02-2.76,0-1.43.96-2.76,2.54-2.76.88,0,1.58.44,2.8.74.77.22,1.69.37,2.98.37,3.35,0,4.71-1.07,4.71-2.83,0-1.29-.59-1.95-3.64-2.72-1.73-.48-4.49-1.03-6-1.95-1.77-1.07-3.13-2.87-3.13-5.89,0-5.7,4.34-8.72,9.45-8.72,2.06,0,4.05.18,5.89.77,1.4.44,2.06,1.54,2.06,2.65,0,1.43-.96,2.83-2.72,2.83-.77,0-1.36-.33-2.32-.59-.59-.15-1.32-.26-2.43-.26-2.58,0-4.01.88-4.01,2.5s1.03,2.13,3.6,2.76c2.24.51,4.6,1.03,6.03,1.91,2.21,1.4,3.16,3.42,3.16,6,0,6.07-4.49,8.9-10.08,8.9Z"/>
        </g>
      </g>
    </g>
  </g>
</svg>