<?xml version="1.0" encoding="UTF-8"?>
<svg id="_レイヤー_2" data-name="レイヤー 2" xmlns="http://www.w3.org/2000/svg" xmlns:xlink="http://www.w3.org/1999/xlink" viewBox="0 0 570.51 122.38">
  <defs>
    <style>
      .cls-1 {
        fill: none;
        stroke: #fff9f4;
        stroke-miterlimit: 10;
        stroke-width: 29.54px;
      }

      .cls-2 {
        fill: url(#GRADATION);
        stroke-width: 0px;
      }
    </style>
    <linearGradient id="GRADATION" x1="0" y1="61.19" x2="570.51" y2="61.19" gradientUnits="userSpaceOnUse">
      <stop offset="0" stop-color="#f77d79"/>
      <stop offset=".53" stop-color="#6aa4ea"/>
      <stop offset=".94" stop-color="#f77d79"/>
    </linearGradient>
  </defs>
  <g id="design">
    <g>
      <g>
        <path class="cls-1" d="M96.53,122.38c-6.71,0-12.11-5.4-12.11-12.27v-52.03l-18.16,37.3c-2.62,5.24-7.04,7.85-11.94,7.85s-9.33-2.45-11.94-7.69l-18.16-37.47v52.19c0,6.71-5.4,12.11-12.11,12.11S0,116.98,0,110.27V12.43C0,5.24,5.56.16,12.43.16s9.98,2.13,12.92,7.85l29.12,58.08L84.09,7.2c2.78-5.56,7.36-7.04,12.27-7.04,7.03,0,12.43,5.56,12.43,12.27v97.67c0,6.87-5.4,12.27-12.27,12.27Z"/>
        <path class="cls-1" d="M213.01,122.38c-5.56,0-11.13-3.11-12.76-10.47-.98-4.75-2.13-9.65-3.27-14.23h-34.03c-1.15,4.58-2.29,9.49-3.27,14.23-1.64,7.2-7.03,10.47-12.43,10.47-7.36,0-14.89-6.05-12.76-16.03,7.03-32.72,16.69-63.15,28.63-92.76,4.58-11.29,11.12-13.58,17.01-13.58s12.92,2.29,17.51,13.58c11.94,29.61,21.43,60.04,28.47,92.76,2.13,9.82-5.4,16.03-13.09,16.03ZM190.75,74.28c-3.27-11.29-6.87-22.25-10.8-33.05-3.93,10.8-7.53,21.76-10.8,33.05h21.6Z"/>
        <path class="cls-1" d="M324.74,122.38c-5.73,0-9.98-1.96-12.76-6.38l-35.99-60.7v54.97c0,6.71-5.4,12.11-12.11,12.11s-12.11-5.4-12.11-12.11V12.27c0-6.54,4.91-12.11,12.92-12.11,5.73,0,10.14,2.45,12.76,6.87l35.83,60.37V12.27c0-6.54,5.4-12.11,12.11-12.11s12.11,5.56,12.11,12.11v98c0,6.71-5.24,12.11-12.76,12.11Z"/>
        <path class="cls-1" d="M415.54,122.38c-31.74,0-44.17-21.27-44.17-52.19v-18c0-29.61,12.11-52.03,44.83-52.03,8.83,0,19.31,2.29,25.03,6.71,4.09,2.94,5.89,6.71,5.89,10.14,0,5.89-4.09,11.45-11.94,11.45-2.78,0-5.07-.65-8.51-2.29-2.45-1.14-5.73-2.29-10.47-2.29-11.78,0-18.32,7.53-18.32,29.12v16.85c0,22.58,6.71,28.79,17.67,28.79,13.09,0,15.38-7.85,15.38-16.85v-3.27h-6.38c-6.71,0-12.11-5.56-12.11-12.27s5.4-12.27,12.11-12.27h19.47c7.36,0,12.6,5.4,12.6,13.25v13.74c0,20.61-10.31,41.39-41.06,41.39Z"/>
        <path class="cls-1" d="M557.05,122.38c-5.56,0-11.12-3.11-12.76-10.47-.98-4.75-2.13-9.65-3.27-14.23h-34.03c-1.15,4.58-2.29,9.49-3.27,14.23-1.64,7.2-7.03,10.47-12.43,10.47-7.36,0-14.89-6.05-12.76-16.03,7.03-32.72,16.69-63.15,28.63-92.76,4.58-11.29,11.12-13.58,17.01-13.58s12.92,2.29,17.51,13.58c11.94,29.61,21.43,60.04,28.47,92.76,2.13,9.82-5.4,16.03-13.09,16.03ZM534.8,74.28c-3.27-11.29-6.87-22.25-10.8-33.05-3.93,10.8-7.53,21.76-10.8,33.05h21.6Z"/>
      </g>
      <g>
        <path class="cls-2" d="M96.53,122.38c-6.71,0-12.11-5.4-12.11-12.27v-52.03l-18.16,37.3c-2.62,5.24-7.04,7.85-11.94,7.85s-9.33-2.45-11.94-7.69l-18.16-37.47v52.19c0,6.71-5.4,12.11-12.11,12.11S0,116.98,0,110.27V12.43C0,5.24,5.56.16,12.43.16s9.98,2.13,12.92,7.85l29.12,58.08L84.09,7.2c2.78-5.56,7.36-7.04,12.27-7.04,7.03,0,12.43,5.56,12.43,12.27v97.67c0,6.87-5.4,12.27-12.27,12.27Z"/>
        <path class="cls-2" d="M213.01,122.38c-5.56,0-11.13-3.11-12.76-10.47-.98-4.75-2.13-9.65-3.27-14.23h-34.03c-1.15,4.58-2.29,9.49-3.27,14.23-1.64,7.2-7.03,10.47-12.43,10.47-7.36,0-14.89-6.05-12.76-16.03,7.03-32.72,16.69-63.15,28.63-92.76,4.58-11.29,11.12-13.58,17.01-13.58s12.92,2.29,17.51,13.58c11.94,29.61,21.43,60.04,28.47,92.76,2.13,9.82-5.4,16.03-13.09,16.03ZM190.75,74.28c-3.27-11.29-6.87-22.25-10.8-33.05-3.93,10.8-7.53,21.76-10.8,33.05h21.6Z"/>
        <path class="cls-2" d="M324.74,122.38c-5.73,0-9.98-1.96-12.76-6.38l-35.99-60.7v54.97c0,6.71-5.4,12.11-12.11,12.11s-12.11-5.4-12.11-12.11V12.27c0-6.54,4.91-12.11,12.92-12.11,5.73,0,10.14,2.45,12.76,6.87l35.83,60.37V12.27c0-6.54,5.4-12.11,12.11-12.11s12.11,5.56,12.11,12.11v98c0,6.71-5.24,12.11-12.76,12.11Z"/>
        <path class="cls-2" d="M415.54,122.38c-31.74,0-44.17-21.27-44.17-52.19v-18c0-29.61,12.11-52.03,44.83-52.03,8.83,0,19.31,2.29,25.03,6.71,4.09,2.94,5.89,6.71,5.89,10.14,0,5.89-4.09,11.45-11.94,11.45-2.78,0-5.07-.65-8.51-2.29-2.45-1.14-5.73-2.29-10.47-2.29-11.78,0-18.32,7.53-18.32,29.12v16.85c0,22.58,6.71,28.79,17.67,28.79,13.09,0,15.38-7.85,15.38-16.85v-3.27h-6.38c-6.71,0-12.11-5.56-12.11-12.27s5.4-12.27,12.11-12.27h19.47c7.36,0,12.6,5.4,12.6,13.25v13.74c0,20.61-10.31,41.39-41.06,41.39Z"/>
        <path class="cls-2" d="M557.05,122.38c-5.56,0-11.12-3.11-12.76-10.47-.98-4.75-2.13-9.65-3.27-14.23h-34.03c-1.15,4.58-2.29,9.49-3.27,14.23-1.64,7.2-7.03,10.47-12.43,10.47-7.36,0-14.89-6.05-12.76-16.03,7.03-32.72,16.69-63.15,28.63-92.76,4.58-11.29,11.12-13.58,17.01-13.58s12.92,2.29,17.51,13.58c11.94,29.61,21.43,60.04,28.47,92.76,2.13,9.82-5.4,16.03-13.09,16.03ZM534.8,74.28c-3.27-11.29-6.87-22.25-10.8-33.05-3.93,10.8-7.53,21.76-10.8,33.05h21.6Z"/>
      </g>
    </g>
  </g>
</svg>